<?xml version="1.0" encoding="utf-8"?>
<!-- Generator: Adobe Illustrator 21.0.0, SVG Export Plug-In . SVG Version: 6.00 Build 0)  -->
<svg version="1.1" id="Layer_1" xmlns="http://www.w3.org/2000/svg" xmlns:xlink="http://www.w3.org/1999/xlink" x="0px" y="0px"
	 viewBox="0 0 496 496" style="enable-background:new 0 0 496 496;" xml:space="preserve">
<style type="text/css">
	.st0{fill:#D52D52;}
	.st1{fill:#C14172;}
	.st2{fill:url(#SVGID_1_);}
	.st3{fill:url(#SVGID_2_);}
	.st4{fill:#856CB9;}
	.st5{fill:url(#SVGID_3_);}
</style>
<g>
	<g>
		<g>
			<path class="st0" d="M72,224h48v-80H72V224z M88,160h16v48H88V160z"/>
			<path class="st1" d="M136,224h48v-96h-48V224z M152,144h16v64h-16V144z"/>
			<linearGradient id="SVGID_1_" gradientUnits="userSpaceOnUse" x1="32" y1="392" x2="176" y2="392">
				<stop  offset="0" style="stop-color:#D41E44"/>
				<stop  offset="1" style="stop-color:#C34675"/>
			</linearGradient>
			<path class="st2" d="M176,384h-64v-64h-8c-39.7,0-72,32.3-72,72s32.3,72,72,72s72-32.3,72-72V384z M104,448
				c-30.9,0-56-25.1-56-56c0-28.2,20.9-51.5,48-55.4V400h63.4C155.5,427.1,132.2,448,104,448z"/>
			<linearGradient id="SVGID_2_" gradientUnits="userSpaceOnUse" x1="176" y1="456" x2="320" y2="456">
				<stop  offset="0" style="stop-color:#D41E44"/>
				<stop  offset="1" style="stop-color:#856CB9"/>
			</linearGradient>
			<rect x="176" y="448" class="st3" width="144" height="16"/>
			<rect x="336" y="448" class="st4" width="16" height="16"/>
			<linearGradient id="SVGID_3_" gradientUnits="userSpaceOnUse" x1="0" y1="248" x2="496" y2="248">
				<stop  offset="0" style="stop-color:#D41E44"/>
				<stop  offset="1" style="stop-color:#4872DE"/>
			</linearGradient>
			<path class="st5" d="M496,184v-56h-56v16h28.7l-77.8,77.8c-2.2-1.9-4.5-3.8-6.9-5.6V68.7L315.3,0H0v496h384v-44.7l8-8l42.1,42.1
				c6.9,6.9,16,10.6,25.7,10.6c20,0,36.3-16.3,36.3-36.3c0-9.7-3.8-18.8-10.6-25.7L443.3,392l10.3-10.3l-11.3-11.3L432,380.7
				l-13.5-13.5c8.6-16.5,13.5-35.3,13.5-55.2c0-30.2-11.3-57.8-29.8-78.9l77.8-77.8V184H496z M320,27.3L356.7,64H320V27.3z M368,80
				v126c-5.1-2.7-10.5-5-16-7V80H368z M336,80v114.4c-7.8-1.6-15.8-2.4-24-2.4V96h-48v106.1c-5.6,2.4-10.9,5.3-16,8.6V64h-48v160
				h30.7c-5.4,5-10.3,10.4-14.7,16.3V240H48V48h256v32H336z M296,112v81.2c-5.5,0.7-10.8,1.8-16,3.3V112H296z M232,80v128h-16V80
				H232z M368,480H16V16h288v16H32v224h174c-8.9,16.7-14,35.8-14,56c0,1,0.1,2,0.2,3.1C179,298.6,158.7,288,136,288h-8v80h78
				c20.2,38,60.1,64,106,64c19.9,0,38.6-4.9,55.2-13.5l0.8,0.8V480z M191.4,352H144v-47.4C168.5,308.1,187.9,327.5,191.4,352z
				 M474.1,445.4c3.8,3.8,5.9,8.9,5.9,14.3c0,11.2-9.1,20.3-20.3,20.3c-5.4,0-10.5-2.1-14.3-5.9L403.3,432l28.7-28.7L474.1,445.4z
				 M420.7,392L392,420.7l-8-8v-4.9c9.9-7.5,18.7-16.4,25.9-26.6L420.7,392z M416,312c0,57.3-46.7,104-104,104s-104-46.7-104-104
				s46.7-104,104-104c25.8,0,49.4,9.5,67.6,25.1l-11.3,11.3C353,231.7,333.4,224,312,224c-48.5,0-88,39.5-88,88s39.5,88,88,88
				s88-39.5,88-88c0-21.4-7.7-41-20.4-56.3l11.3-11.3C406.5,262.6,416,286.2,416,312z M317.7,317.7l50.5-50.5
				C378.1,279.4,384,295,384,312c0,39.7-32.3,72-72,72s-72-32.3-72-72s32.3-72,72-72c17,0,32.6,5.9,44.9,15.8l-50.5,50.5
				L317.7,317.7z"/>
		</g>
	</g>
</g>
</svg>
