<svg xmlns="http://www.w3.org/2000/svg" viewBox="0 0 486.7 486.7">
  <path fill="#4872de" d="M482.6 41.4c-2.9-3.1-7.3-4.7-12.9-4.7h-1.6c-28.4 1.3-56.7 2.7-85.1 4-3.8.2-9 .4-13.1 4.5-1.3 1.3-2.3 2.8-3.1 4.6-4.2 9.1 1.7 15 4.5 17.8l7.1 7.2c4.9 5 9.9 10 14.9 14.9L221.7 261.4l-77.1-77.1c-4.6-4.6-10.8-7.2-17.4-7.2s-12.7 2.6-17.3 7.2L7.2 286.9c-9.6 9.6-9.6 25.1 0 34.7l4.6 4.6c4.6 4.6 10.8 7.2 17.4 7.2s12.7-2.6 17.3-7.2l80.7-80.7 77.1 77.1c4.6 4.6 10.8 7.2 17.4 7.2 6.6 0 12.7-2.6 17.4-7.2L432.7 129l21.9 21.8c2.6 2.6 6.2 6.2 11.7 6.2 2.3 0 4.6-.6 7-1.9 1.6-.9 3-1.9 4.2-3.1 4.3-4.3 5.1-9.8 5.3-14.1.8-18.4 1.7-36.8 2.6-55.3l1.3-27.7c.3-5.8-1-10.3-4.1-13.5z"/>
</svg>