<?xml version="1.0" encoding="UTF-8"?>
<svg width="289px" height="74px" viewBox="0 0 289 74" version="1.1" xmlns="http://www.w3.org/2000/svg" xmlns:xlink="http://www.w3.org/1999/xlink">
    <!-- Generator: Sketch 47.1 (45422) - http://www.bohemiancoding.com/sketch -->
    <title>graph</title>
    <desc>Created with Sketch.</desc>
    <defs>
        <linearGradient x1="-0.0115625%" y1="49.9771546%" x2="99.9884375%" y2="49.9771546%" id="linearGradient-1">
            <stop stop-color="#D41E44" offset="0%"></stop>
            <stop stop-color="#4872DE" offset="100%"></stop>
        </linearGradient>
    </defs>
    <g id="Page-1" stroke="none" stroke-width="1" fill="none" fill-rule="evenodd">
        <g id="graph" fill-rule="nonzero" fill="url(#linearGradient-1)">
            <path d="M281.7,0.3 C277.8,0.3 274.7,3.4 274.7,7.3 C274.7,8.9 275.2,10.3 276.1,11.5 L234.5,53 C233.3,52 231.7,51.3 230,51.3 C228.3,51.3 226.7,51.9 225.5,53 L194.2,21.7 C194.5,20.9 194.7,20 194.7,19 C194.7,15.1 191.6,12 187.7,12 C183.8,12 180.7,15.1 180.7,19 C180.7,20.1 181,21.2 181.4,22.1 L148.4,55.1 C147.2,54 145.5,53.3 143.7,53.3 C142.2,53.3 140.8,53.8 139.7,54.6 L114.3,29.2 C114.5,28.5 114.7,27.7 114.7,27 C114.7,23.1 111.6,20 107.7,20 C103.8,20 100.7,23.1 100.7,27 C100.7,27.8 100.8,28.6 101.1,29.3 L74.4,56 C73.5,55.6 72.5,55.3 71.4,55.3 C70,55.3 68.8,55.7 67.7,56.4 L47,35.7 C47.7,34.6 48.1,33.4 48.1,32 C48.1,28.1 45,25 41.1,25 C37.2,25 34.1,28.1 34.1,32 C34.1,33.5 34.6,34.9 35.4,36.1 L11.2,60.3 C10.2,59.7 9,59.4 7.7,59.4 C3.8,59.4 0.7,62.5 0.7,66.4 C0.7,70.3 3.8,73.4 7.7,73.4 C11.6,73.4 14.7,70.3 14.7,66.4 C14.7,65 14.3,63.7 13.6,62.6 L37.9,38.3 C38.8,38.8 39.9,39 41,39 C42.3,39 43.5,38.6 44.6,38 L65.4,58.8 C64.8,59.8 64.4,61.1 64.4,62.4 C64.4,66.3 67.5,69.4 71.4,69.4 C75.3,69.4 78.4,66.3 78.4,62.4 C78.4,60.8 77.9,59.4 77,58.2 L103,32.2 C104.2,33.3 105.9,34 107.7,34 C109.6,34 111.2,33.3 112.5,32.1 L137.5,57.1 C137,58.1 136.7,59.2 136.7,60.3 C136.7,64.2 139.8,67.3 143.7,67.3 C147.6,67.3 150.7,64.2 150.7,60.3 C150.7,59.5 150.6,58.7 150.3,58 L183.6,24.7 C184.8,25.5 186.2,26 187.7,26 C189.4,26 191,25.4 192.2,24.4 L223.6,55.8 C223.3,56.6 223.1,57.5 223.1,58.4 C223.1,62.3 226.2,65.4 230.1,65.4 C234,65.4 237.1,62.3 237.1,58.4 C237.1,57.5 236.9,56.6 236.6,55.8 L278.7,13.7 C279.6,14.1 280.7,14.4 281.7,14.4 C285.6,14.4 288.7,11.3 288.7,7.4 C288.7,3.5 285.5,0.3 281.7,0.3 Z" id="Shape"></path>
        </g>
    </g>
</svg>