<svg xmlns="http://www.w3.org/2000/svg" viewBox="0 0 1425 254">
  <g fill-rule="evenodd">
    <g fill-rule="nonzero">
      <path d="M247.744 106.452c-.423.25-.867.45-1.326.604l-20.999 12.322c.203 2.661.423 5.41.426 8.068-.005 3.197-.427 6.256-.715 9.366l22.265 14.613a7.069 7.069 0 0 1 3.032 7.619c-2.348 9.076-5.726 17.799-9.906 25.962a7.06 7.06 0 0 1-7.432 3.728l-26.048-4.676c-3.314 4.67-7.028 9.097-11.11 13.142l7.87 25.662a7.073 7.073 0 0 1-2.83 7.95c-7.503 5.364-15.596 9.782-24.176 13.422a7.063 7.063 0 0 1-8.225-2.01l-16.778-20.054c-5.485 1.396-11.1 2.356-16.86 2.781l-10.74 24.698a7.068 7.068 0 0 1-7.014 4.36c-9.425-.74-18.312-2.752-26.99-5.414a7.07 7.07 0 0 1-4.992-6.598l-.092-26.259c-5.126-2.471-9.933-5.494-14.499-8.763L46.351 219.18a7.067 7.067 0 0 1-8.041-1.319c-6.578-6.466-12.605-13.73-17.675-21.547a7.066 7.066 0 0 1 .498-8.316l16.924-20.152c-2.375-5.218-4.17-10.7-5.622-16.346l-26.124-5.89a7.073 7.073 0 0 1-5.393-6.245C.55 135.42.191 131.511.192 127.41c-.002-5.297.387-10.53 1.015-15.643a7.067 7.067 0 0 1 5.763-6.256l29.603-5.203a7.09 7.09 0 0 1 8.23 5.728 7.09 7.09 0 0 1-5.728 8.232l-24.155 4.238c-.235 2.947-.609 5.852-.607 8.84-.003 1.894.176 3.774.268 5.633l24.846 5.739a7.08 7.08 0 0 1 5.206 5.548c1.574 7.706 4.278 14.93 7.799 21.708a7.06 7.06 0 0 1-.854 7.916l-15.776 18.855a112.57 112.57 0 0 0 9.192 11.175l22.526-11.243a7.077 7.077 0 0 1 7.392.746c6.062 4.811 12.83 8.755 20.01 11.747a7.07 7.07 0 0 1 4.234 6.553l.06 24.281c4.7 1.237 9.491 2.227 14.398 2.837l9.953-23a7.074 7.074 0 0 1 6.32-4.173c8.013-.23 15.638-1.382 22.829-3.637a7.076 7.076 0 0 1 7.3 2.259l15.882 18.554c4.404-2.11 8.591-4.711 12.656-7.36l-7.14-23.874a7.066 7.066 0 0 1 2.028-7.238 85.796 85.796 0 0 0 15.099-17.684 7.068 7.068 0 0 1 7.092-3.139l23.95 4.245a111.221 111.221 0 0 0 5.23-13.797l-20.736-13.538a7.058 7.058 0 0 1-3.142-7.094c.571-3.995.724-7.881.726-12.096-.003-3.726-.02-7.525-.475-11.03a7.063 7.063 0 0 1 3.37-6.854L235.787 97c-1.326-4.645-2.735-9.189-4.643-13.63l-24.99 2.977a7.075 7.075 0 0 1-6.854-3.37c-4.064-6.575-8.997-12.621-14.71-17.88a7.055 7.055 0 0 1-2.045-7.634l8.503-22.857c-4.044-2.806-8.31-5.267-12.675-7.512L161.36 45.04a7.07 7.07 0 0 1-7.405 1.984c-7.211-2.39-14.794-3.954-22.73-4.324a7.075 7.075 0 0 1-6.407-4.482l-8.111-22.871c-4.932.478-9.825 1.074-14.546 2.163l-1.5 24.949a7.084 7.084 0 0 1-4.542 6.178c-7.263 2.88-14.104 6.94-20.197 11.608a7.088 7.088 0 0 1-7.835.366L41.979 45.538a7.102 7.102 0 0 1-2.604-9.719 7.102 7.102 0 0 1 9.718-2.604l22.648 13.274c4.737-3.27 9.796-6.098 15.079-8.503l1.525-26.692a7.056 7.056 0 0 1 4.947-6.533C102.075 2.324 111.434.83 120.87.347a7.064 7.064 0 0 1 6.932 4.591l9.076 24.606c5.77.57 11.284 1.685 16.728 3.205l18.55-19.602a7.058 7.058 0 0 1 7.99-1.646c8.514 3.893 16.397 8.936 23.714 14.474a7.066 7.066 0 0 1 2.396 8.035l-8.992 24.727c3.934 4.007 7.678 8.294 10.908 12.947l26.67-3.178a7.074 7.074 0 0 1 7.272 4.002c3.907 8.188 7.156 17.05 9.272 26.274.466 3.587-1.055 6.359-3.642 7.67z"/>
      <path d="M107.862 170.774c-5.689-2.3-11.096-5.574-15.696-10.17-18.395-18.399-18.246-48.449.149-66.84 18.397-18.401 48.36-18.577 66.75-.18 2.903 2.607 3.15 7.073.546 9.978-2.611 2.91-7.087 3.142-9.99.54a11.103 11.103 0 0 1-.495-.493c-12.979-12.98-33.808-12.888-46.785.092-12.978 12.97-13.012 34.013-.033 46.996 12.985 12.98 33.814 12.888 46.788-.09 6.284-6.276 9.52-14.364 9.725-22.594a7.134 7.134 0 0 1 7.235-7.026c3.94.063 7.085 3.299 7.025 7.237-.283 11.703-5.055 23.42-13.959 32.32-13.79 13.799-34.175 17.13-51.26 10.23z"/>
    </g>
    <path d="M346 196.25c4.5.667 8.958 1.625 13.375 2.875s8.375 2.708 11.875 4.375v9.5H288v-9.5a52.712 52.712 0 0 1 10.125-4.5c3.583-1.167 7.042-2.083 10.375-2.75V54.75a66.539 66.539 0 0 1-11-2.875c-3.5-1.25-6.667-2.708-9.5-4.375V38h31.5c6.667 0 14.292-.333 22.875-1s16.458-1 23.625-1c8.833 0 17.458.875 25.875 2.625 8.417 1.75 15.917 4.708 22.5 8.875s11.875 9.708 15.875 16.625 6 15.542 6 25.875c0 9.833-1.958 18.333-5.875 25.5-3.917 7.167-9.125 13.083-15.625 17.75s-14 8.125-22.5 10.375S375 147 366 147h-4c-1.833 0-3.792-.042-5.875-.125a1731.74 1731.74 0 0 1-6-.25c-1.917-.083-3.292-.208-4.125-.375v50zm13.5-144c-3.333 0-5.958.125-7.875.375-1.917.25-3.792.625-5.625 1.125v76c1.5.5 3.75.792 6.75.875 3 .083 5.417.125 7.25.125 4.5 0 8.833-.75 13-2.25s7.875-3.833 11.125-7S390 114.25 392 109.25s3-11 3-18c0-13.333-3.25-23.167-9.75-29.5-6.5-6.333-15.083-9.5-25.75-9.5zM564.5 192c-1.333 2.833-3.458 5.708-6.375 8.625s-6.5 5.5-10.75 7.75-9.167 4.083-14.75 5.5C527.042 215.292 521 216 514.5 216c-10.333 0-19.5-1.542-27.5-4.625s-14.667-7.5-20-13.25-9.375-12.625-12.125-20.625-4.125-17-4.125-27c0-21.333 5.583-37.583 16.75-48.75C478.667 90.583 494.167 85 514 85c8.5 0 16.458 1.167 23.875 3.5 7.417 2.333 13.583 6.167 18.5 11.5s8.333 12.333 10.25 21c1.917 8.667 1.792 19.25-.375 31.75H489.5c.167 13.167 3.542 23.667 10.125 31.5 6.583 7.833 16.292 11.75 29.125 11.75 5.5 0 11.208-.833 17.125-2.5s10.542-3.833 13.875-6.5l4.75 5zM513 99.25c-3.333 0-6.292.583-8.875 1.75s-4.833 3.292-6.75 6.375c-1.917 3.083-3.458 7.25-4.625 12.5-1.167 5.25-2 11.875-2.5 19.875h40.25c1.167-13 .417-23-2.25-30s-7.75-10.5-15.25-10.5zM579.25 94c6.333-4 13-6.833 20-8.5V65.25c1.333-1 4.625-2.458 9.875-4.375 5.25-1.917 11.125-3.458 17.625-4.625h8.5V88h33v15.75h-33v64.75c0 10.333 1.292 17.5 3.875 21.5S646 196 652 196c3 0 6.375-.208 10.125-.625 3.75-.417 7.208-1.208 10.375-2.375l1.75 8.25c-1.5 1.5-3.708 3.083-6.625 4.75-2.917 1.667-6.25 3.25-10 4.75s-7.833 2.75-12.25 3.75-9.042 1.5-13.875 1.5c-10.833 0-18.917-2.833-24.25-8.5-5.333-5.667-8-14.833-8-27.5v-76.25h-20V94zm170.25 22.75c-2 1-4.333 2.667-7 5s-5.083 6.167-7.25 11.5v64c3.333.333 6.667.958 10 1.875s6.667 2.292 10 4.125V213h-72.5v-9.75c3-1.667 5.833-2.917 8.5-3.75a143.511 143.511 0 0 1 8-2.25v-91.5l-16.5-2V94c2.667-1.167 5.958-2.25 9.875-3.25s7.958-1.875 12.125-2.625a240.21 240.21 0 0 1 12.125-1.875c3.917-.5 7.208-.917 9.875-1.25h8.5v33.25h1c1.333-3.667 3.292-7.5 5.875-11.5s5.625-7.667 9.125-11 7.333-6 11.5-8 8.5-2.917 13-2.75c1.833 2.333 3.417 5.625 4.75 9.875 1.333 4.25 2.417 8.292 3.25 12.125v9.75H749.5zm43 33.75c0-10.167 1.542-19.292 4.625-27.375 3.083-8.083 7.5-14.958 13.25-20.625s12.708-10 20.875-13S848.667 85 859 85c11.667 0 21.708 1.625 30.125 4.875 8.417 3.25 15.333 7.75 20.75 13.5s9.375 12.667 11.875 20.75S925.5 141 925.5 150.5c0 10.167-1.5 19.292-4.5 27.375-3 8.083-7.375 14.958-13.125 20.625s-12.75 10-21 13S869.333 216 859 216c-11.333 0-21.167-1.625-29.5-4.875-8.333-3.25-15.25-7.75-20.75-13.5s-9.583-12.667-12.25-20.75-4-16.875-4-26.375zm38.75 0c0 7.5.458 14.375 1.375 20.625s2.542 11.542 4.875 15.875 5.5 7.708 9.5 10.125 9.167 3.625 15.5 3.625c3.667 0 7-.875 10-2.625s5.583-4.583 7.75-8.5 3.792-9.083 4.875-15.5c1.083-6.417 1.625-14.292 1.625-23.625 0-7.667-.458-14.583-1.375-20.75s-2.5-11.417-4.75-15.75-5.292-7.708-9.125-10.125-8.667-3.625-14.5-3.625c-4.333 0-8.083.875-11.25 2.625s-5.833 4.583-8 8.5-3.792 9.083-4.875 15.5c-1.083 6.417-1.625 14.292-1.625 23.625zM1005.75 38h82v9.5c-3.5 1.833-7.375 3.375-11.625 4.625s-8.375 2.125-12.375 2.625v142H1112l16.75-44.75H1139c.667 3.833 1.292 8.333 1.875 13.5a304.272 304.272 0 0 1 1.375 16.25c.333 5.667.583 11.25.75 16.75.167 5.5.167 10.333 0 14.5h-137.25v-9.5c3.833-2 7.458-3.583 10.875-4.75 3.417-1.167 6.625-2 9.625-2.5V54.75c-8.167-1.333-15-3.75-20.5-7.25V38zM1264 176.75c0 3.667.042 6.833.125 9.5.083 2.667.292 5.5.625 8.5l17.25 2.5V206c-2 1-4.708 2-8.125 3s-7 1.958-10.75 2.875a138.48 138.48 0 0 1-11.125 2.25 245.328 245.328 0 0 1-9.75 1.375h-8.5c-1.667-3.833-2.667-7.667-3-11.5-.333-3.833-.583-8.5-.75-14h-1.25c-.833 3.333-2.25 6.542-4.25 9.625s-4.542 5.833-7.625 8.25-6.708 4.375-10.875 5.875-8.833 2.25-14 2.25c-5.5 0-10.583-.833-15.25-2.5s-8.75-4-12.25-7-6.25-6.625-8.25-10.875-3-9.042-3-14.375c0-7.5 1.417-13.667 4.25-18.5s7.292-8.792 13.375-11.875 13.917-5.375 23.5-6.875 21.208-2.583 34.875-3.25c1.333-14.333.75-24.833-1.75-31.5-2.5-6.667-7.917-10-16.25-10-5.167 0-9.917.833-14.25 2.5l-11.75 30h-11c-1.333-2-2.625-4.292-3.875-6.875a94.405 94.405 0 0 1-3.5-8.25 83.942 83.942 0 0 1-2.75-8.875A69.66 69.66 0 0 1 1162.5 99c6.333-4.333 14.5-7.75 24.5-10.25s20.583-3.75 31.75-3.75c9.5 0 17.25 1.042 23.25 3.125s10.708 4.917 14.125 8.5 5.792 7.792 7.125 12.625c1.333 4.833 2 10 2 15.5 0 10-.208 19.042-.625 27.125a483.341 483.341 0 0 0-.625 24.875zM1207.75 196c3.5 0 6.5-.667 9-2s4.625-2.917 6.375-4.75c1.75-1.833 3.083-3.833 4-6 .917-2.167 1.625-4.083 2.125-5.75v-25c-7.833.167-14.25.667-19.25 1.5s-8.917 2.208-11.75 4.125c-2.833 1.917-4.792 4.333-5.875 7.25-1.083 2.917-1.625 6.458-1.625 10.625 0 6.333 1.5 11.25 4.5 14.75s7.167 5.25 12.5 5.25zm94.75-150.25l-19-2V34c2.5-1 5.792-2 9.875-3s8.333-1.875 12.75-2.625 8.75-1.417 13-2S1327 25.333 1330 25h8.5v86.5h.5c3.333-8.333 8.417-14.833 15.25-19.5s14.917-7 24.25-7c14.667 0 26.083 5.083 34.25 15.25 8.167 10.167 12.25 25.583 12.25 46.25 0 22.833-6.042 40-18.125 51.5s-29.792 17.25-53.125 17.25c-4.167 0-8.833-.292-14-.875a259.97 259.97 0 0 1-15-2.125c-4.833-.833-9.292-1.833-13.375-3s-7.042-2.333-8.875-3.5v-160zm59.75 59.25c-6.333 0-11.417 2.292-15.25 6.875s-6.667 10.375-8.5 17.375v66.25c2.333 1.667 5.208 3 8.625 4s7.292 1.5 11.625 1.5c9.5 0 16.458-4.25 20.875-12.75 4.417-8.5 6.625-21.833 6.625-40 0-13.167-1.792-23.667-5.375-31.5-3.583-7.833-9.792-11.75-18.625-11.75z"/>
  </g>
</svg>
