<?xml version="1.0" encoding="utf-8"?>
<!-- Generator: Adobe Illustrator 21.0.0, SVG Export Plug-In . SVG Version: 6.00 Build 0)  -->
<svg version="1.1" id="Layer_1" xmlns="http://www.w3.org/2000/svg" xmlns:xlink="http://www.w3.org/1999/xlink" x="0px" y="0px"
	 viewBox="0 0 496 496" style="enable-background:new 0 0 496 496;" xml:space="preserve">
<style type="text/css">
	.st0{fill:url(#SVGID_1_);}
	.st1{fill:url(#SVGID_2_);}
</style>
<g>
	<g>
		<g>
			<linearGradient id="SVGID_1_" gradientUnits="userSpaceOnUse" x1="184" y1="248" x2="312" y2="248">
				<stop  offset="0" style="stop-color:#B1437C"/>
				<stop  offset="1" style="stop-color:#955CA3"/>
			</linearGradient>
			<path class="st0" d="M248,184c-35.3,0-64,28.7-64,64s28.7,64,64,64s64-28.7,64-64S283.3,184,248,184z M248,296
				c-26.5,0-48-21.5-48-48s21.5-48,48-48s48,21.5,48,48S274.5,296,248,296z"/>
			<linearGradient id="SVGID_2_" gradientUnits="userSpaceOnUse" x1="0" y1="248" x2="496" y2="248">
				<stop  offset="0" style="stop-color:#D41E44"/>
				<stop  offset="1" style="stop-color:#4872DE"/>
			</linearGradient>
			<path class="st1" d="M448,200c-23.7,0-43.4,17.3-47.3,40H376v-32h-23.4c-0.7-1.9-1.5-3.8-2.4-5.6l16.6-16.6l-22.6-22.6l17.5-17.5
				c8.1,5.8,17.7,8.9,27.8,8.9c12.8,0,24.9-5,33.9-14.1c9.1-9.1,14.1-21.1,14.1-33.9s-5-24.9-14.1-33.9
				c-9.1-9.1-21.1-14.1-33.9-14.1s-24.9,5-33.9,14.1c-9.1,9.1-14.1,21.1-14.1,33.9c0,10.1,3.1,19.7,8.9,27.8l-17.5,17.5l-22.6-22.6
				l-16.6,16.6c-1.9-0.8-3.8-1.6-5.6-2.4V120h-32V95.3c22.7-3.8,40-23.5,40-47.3c0-26.5-21.5-48-48-48s-48,21.5-48,48
				c0,23.7,17.3,43.4,40,47.3V120h-32v23.4c-1.9,0.7-3.8,1.5-5.6,2.4l-16.6-16.6l-22.6,22.6l-17.5-17.5c5.8-8.1,8.9-17.7,8.9-27.8
				c0-12.8-5-24.9-14.1-33.9c-9.1-9.1-21.1-14.1-33.9-14.1s-24.9,5-33.9,14.1c-9.1,9.1-14.1,21.1-14.1,33.9s5,24.9,14.1,33.9
				c9.1,9.1,21.1,14.1,33.9,14.1c10.1,0,19.7-3.1,27.8-8.9l17.5,17.5l-22.6,22.6l16.6,16.6c-0.8,1.9-1.6,3.8-2.4,5.6H120v32H95.3
				c-3.8-22.7-23.5-40-47.3-40c-26.5,0-48,21.5-48,48s21.5,48,48,48c23.7,0,43.4-17.3,47.3-40H120v32h23.4c0.7,1.9,1.5,3.8,2.4,5.6
				l-16.6,16.6l22.6,22.6l-17.5,17.5c-8.1-5.8-17.7-8.9-27.8-8.9c-12.8,0-24.9,5-33.9,14.1c-9.1,9.1-14.1,21.1-14.1,33.9
				s5,24.9,14.1,33.9c9.1,9.1,21.1,14.1,33.9,14.1s24.9-5,33.9-14.1c9.1-9.1,14.1-21.1,14.1-33.9c0-10.1-3.1-19.7-8.9-27.8
				l17.5-17.5l22.6,22.6l16.6-16.6c1.9,0.8,3.8,1.6,5.6,2.4V376h32v24.7c-22.7,3.8-40,23.5-40,47.3c0,26.5,21.5,48,48,48
				s48-21.5,48-48c0-23.7-17.3-43.4-40-47.3V376h32v-23.4c1.9-0.7,3.8-1.5,5.6-2.4l16.6,16.6l22.6-22.6l17.5,17.5
				c-5.8,8.1-8.9,17.7-8.9,27.8c0,12.8,5,24.9,14.1,33.9c9.1,9.1,21.1,14.1,33.9,14.1s24.9-5,33.9-14.1c9.1-9.1,14.1-21.1,14.1-33.9
				s-5-24.9-14.1-33.9c-9.1-9.1-21.1-14.1-33.9-14.1c-10.1,0-19.7,3.1-27.8,8.9l-17.5-17.5l22.6-22.6l-16.6-16.6
				c0.8-1.9,1.6-3.8,2.4-5.6H376v-32h24.7c3.8,22.7,23.5,40,47.3,40c26.5,0,48-21.5,48-48S474.5,200,448,200z M366.8,84
				c6-6,14.1-9.4,22.6-9.4S406,77.9,412,84c6,6,9.4,14.1,9.4,22.6s-3.3,16.6-9.4,22.6c-12.1,12.1-33.2,12.1-45.2,0
				c-6-6-9.4-14.1-9.4-22.6S360.8,90,366.8,84z M129.2,129.2c-12.1,12.1-33.2,12.1-45.2,0c-6-6-9.4-14.1-9.4-22.6S77.9,90,84,83.9
				c6-6,14.1-9.4,22.6-9.4s16.6,3.3,22.6,9.4c6,6,9.4,14.1,9.4,22.6S135.2,123.2,129.2,129.2z M48,280c-17.6,0-32-14.4-32-32
				s14.4-32,32-32s32,14.4,32,32S65.6,280,48,280z M129.2,412c-12.1,12.1-33.2,12.1-45.2,0c-6-6-9.4-14.1-9.4-22.6
				s3.3-16.6,9.4-22.6c6-6,14.1-9.4,22.6-9.4s16.6,3.3,22.6,9.4c6,6,9.4,14.1,9.4,22.6S135.2,406,129.2,412z M366.8,366.8
				c6-6,14.1-9.4,22.6-9.4s16.6,3.3,22.6,9.4c6,6,9.4,14.1,9.4,22.6s-3.3,16.6-9.4,22.6c-12.1,12.1-33.2,12.1-45.2,0
				c-6-6-9.4-14.1-9.4-22.6S360.8,372.8,366.8,366.8z M216,48c0-17.6,14.4-32,32-32s32,14.4,32,32s-14.4,32-32,32S216,65.6,216,48z
				 M280,448c0,17.6-14.4,32-32,32s-32-14.4-32-32s14.4-32,32-32S280,430.4,280,448z M360,272h-18.9l-1.8,5.5
				c-1.5,4.7-3.5,9.4-5.9,14.1l-2.7,5.2l13.4,13.4l-33.9,33.9l-13.4-13.4l-5.2,2.7c-4.7,2.4-9.4,4.4-14.1,5.9l-5.5,1.8V360h-48
				v-18.9l-5.5-1.8c-4.7-1.5-9.4-3.5-14.1-5.9l-5.2-2.7l-13.4,13.4l-33.9-33.9l13.4-13.4l-2.7-5.2c-2.4-4.7-4.4-9.4-5.9-14.1
				l-1.8-5.5H136v-48h18.9l1.8-5.5c1.5-4.7,3.5-9.4,5.9-14.1l2.7-5.2l-13.4-13.4l33.9-33.9l13.4,13.4l5.2-2.7
				c4.7-2.4,9.4-4.4,14.1-5.9l5.5-1.8V136h48v18.9l5.5,1.8c4.7,1.5,9.4,3.5,14.1,5.9l5.2,2.7l13.4-13.4l33.9,33.9l-13.4,13.4
				l2.7,5.2c2.4,4.7,4.4,9.4,5.9,14.1l1.8,5.5H360V272z M448,280c-17.6,0-32-14.4-32-32s14.4-32,32-32s32,14.4,32,32
				S465.6,280,448,280z"/>
		</g>
	</g>
</g>
</svg>
