<svg xmlns="http://www.w3.org/2000/svg" viewBox="0 0 1008 612">
  <linearGradient id="a" x1="118.667" x2="406.667" y1="148.833" y2="148.833" gradientUnits="userSpaceOnUse">
    <stop offset="0" stop-color="#d41e44"/>
    <stop offset="1" stop-color="#4872de"/>
  </linearGradient>
  <path fill="url(#a)" d="M399.7 112.3c-3.9 0-7 3.1-7 7 0 1.6.5 3 1.4 4.2L352.5 165c-1.2-1-2.8-1.7-4.5-1.7-1.7 0-3.3.6-4.5 1.7l-31.3-31.3c.3-.8.5-1.7.5-2.7 0-3.9-3.1-7-7-7s-7 3.1-7 7c0 1.1.3 2.2.7 3.1l-33 33c-1.2-1.1-2.9-1.8-4.7-1.8-1.5 0-2.9.5-4 1.3l-25.4-25.4c.2-.7.4-1.5.4-2.2 0-3.9-3.1-7-7-7s-7 3.1-7 7c0 .8.1 1.6.4 2.3L192.4 168c-.9-.4-1.9-.7-3-.7-1.4 0-2.6.4-3.7 1.1L165 147.7c.7-1.1 1.1-2.3 1.1-3.7 0-3.9-3.1-7-7-7s-7 3.1-7 7c0 1.5.5 2.9 1.3 4.1l-24.2 24.2c-1-.6-2.2-.9-3.5-.9-3.9 0-7 3.1-7 7s3.1 7 7 7 7-3.1 7-7c0-1.4-.4-2.7-1.1-3.8l24.3-24.3c.9.5 2 .7 3.1.7 1.3 0 2.5-.4 3.6-1l20.8 20.8c-.6 1-1 2.3-1 3.6 0 3.9 3.1 7 7 7s7-3.1 7-7c0-1.6-.5-3-1.4-4.2l26-26c1.2 1.1 2.9 1.8 4.7 1.8 1.9 0 3.5-.7 4.8-1.9l25 25c-.5 1-.8 2.1-.8 3.2 0 3.9 3.1 7 7 7s7-3.1 7-7c0-.8-.1-1.6-.4-2.3l33.3-33.3c1.2.8 2.6 1.3 4.1 1.3 1.7 0 3.3-.6 4.5-1.6l31.4 31.4c-.3.8-.5 1.7-.5 2.6 0 3.9 3.1 7 7 7s7-3.1 7-7c0-.9-.2-1.8-.5-2.6l42.1-42.1c.9.4 2 .7 3 .7 3.9 0 7-3.1 7-7s-3.2-7.1-7-7.1z"/>
</svg>